<?xml version="1.0" encoding="UTF-8"?>
<svg width="380pt" height="64pt" version="1.1" viewBox="0 0 380 64" xmlns="http://www.w3.org/2000/svg">
 <g transform="translate(3,3)">
  <g transform="matrix(.057856 -.023376 .023376 .057856 -10.472 18.49)">
   <path d="m800.98 8.08c61.37 6.46 107.67 71.39 93.01 131.69 12.26 6.14 24.15 12.98 35.65 20.44 8.76-28.8 5.6-60.65-8.63-87.14 69.31 5.22 115.65 88.29 86.11 150.8 7.16 6.55 13.04 14.31 19.67 21.37 19.04-25.87 21.81-59.86 15.55-90.59 70.24 24.15 92.5 125.64 38.65 176.67 42.75 94.53 40.32 208.16-8.95 299.72-56.66 110.53-167.66 185.84-286.43 215.57-100.97 25.55-208.94 19.93-307.17-14.45-20.75 18.18-46.85 31.51-74.82 32.69-13.51 2.06-29.02-4.18-34.32-17.37-4.01-22.65 13.37-40.52 27.63-55.4-13.65-8.5-27.17-17.28-39.91-27.12-24.81 22.11-56.93 38.87-90.86 38.07-13.14-1.15-29.38-8.11-30.47-23.11-2.01-34.28 30-59.37 57.33-74.64-47.51-54.23-80.48-123.06-87.21-195.25-35.65 15.42-70.69 32.39-106.61 47.15 2.03-40.27 8.19-80.21 10.54-120.46-25.42 12.33-50.24 26-75.66 38.33-8.21-16.62-17.5-32.91-24.9-49.8 55.54-28.9 111.41-57.19 166.94-86.14-4.24 42.56-7.75 85.17-12.32 127.71 13.85-4.44 26.34-12.13 39.96-17.11 6.32-96.32 56.3-186.57 128.22-249.73 127.85-111.77 314.59-144.37 475.62-96.02 12.43-31.2 8.99-66.49-6.62-95.88m-253.15 122.73c-98.28 22.16-190.89 77.6-249.46 160.57-7.01 9.08-13.1 19.02-18.36 29.22 34.99 19.51 74.95 26.56 113.61 34.86 43.98 7.78 88.56 15.76 130.05 32.86 31.3 13.05 60.91 37.75 67.44 72.57-23.6-37.56-64.69-60.19-107.73-67.29-56.66-8.49-114.42-13.71-168.64-33.33 9.09 17.35 27.38 26.3 44.03 34.96 34.82 15.49 72.42 23.09 109.6 30.42-55.43 1.63-114.17-5.07-161.32-36.73 7.58 13.7 21.55 22.07 35.18 28.84 45.98 20.99 97.39 25.17 147.1 29.08-55.62 7.73-115.46 5.63-167.45-17.78 10.79 15.75 29.34 23.64 47.01 29.07 44.63 11.38 90.97 11.69 136.68 14.36-53.24 11.69-110.78 11.82-162.97-5.08-22.13-7.81-44.51-24.47-46.19-49.68-14.46-11-25.88-31.28-16.37-49.09-5.78-5.85-10.35-12.73-14.41-19.84-9.78 22.17-17.97 45.39-21.01 69.5-0.35 0.52-1.05 1.57-1.4 2.1-5.47 34.6-4.08 69.41 0.02 104.09 0.38 0.49 1.15 1.47 1.53 1.96 4.15 28.74 13.91 56.8 27.19 82.57 31.51 65.21 85.5 117.96 147.46 154.56 163.32 95.79 386.99 82.61 532.52-40.67-20.15 10.36-40.01 21.33-59.97 32.06-13.3-8.87-25.5-19.58-39.1-27.83-18.1 8.44-34.86 20.21-52.94 29.01-9.24-8.82-18.37-17.78-27.02-27.18l-0.99-0.01c-8.16-9.17-16.92-17.87-26.04-26.05-18.08 11.59-35.08 25.06-52.65 37.49-2.33 1.68-4.67-0.76-6.47-2-27.58-21.91-55.01-44.04-82.89-65.58 21.68-22.96 43.1-46.36 65.33-68.66 9.51 6 17.83 15.62 26.06 23.82-11.3 14.45-26.45 26.56-37.15 40.86 10.46 9.61 22.29 18.7 34 27 20.16-11.39 37.3-28.86 57.73-39.73 19.56 17.23 36.79 37.44 56.27 54.92 17.11-7.83 32.55-19.35 49.7-26.87 12.36 8.11 23.91 17.47 35.9 26.13 2.78 3.03 6.45 0.12 9.32-1.17 39.98-21.34 80.15-42.37 119.85-64.17 9-10.04 15.57-22.63 21.01-35.04 33.14-62.43 41.62-137.38 25.41-206.09-9.2-39.74-26.32-77.79-50.18-110.93-31.7-47.1-76.34-84.28-124.82-113.19-103.1-59.28-228.94-75.65-344.47-48.89z"/>
   <path d="m547.83 130.81c115.53-26.76 241.37-10.39 344.47 48.89 48.48 28.91 93.12 66.09 124.82 113.19-35.15-32.79-75.81-59.17-119.04-80-24.57-24.3-57.53-37.67-90.3-46.75-21.04-4.23-44.77-10.29-64.69 0.83-156.5-23.75-325.89 17.13-444.72 124.41 58.57-82.97 151.18-138.41 249.46-160.57z" fill="#cf0"/>
   <path d="m298.37 291.38c118.83-107.28 288.22-148.16 444.72-124.41-10.93 11.9 2.2 27.39 11.8 35.17 31 23.12 68.28 38.07 106.69 42.67 13.62-0.34 31.36 3.47 41.57-8.31 4.8-8.04-0.4-16.92-5.07-23.61 43.23 20.83 83.89 47.21 119.04 80 23.86 33.14 40.98 71.19 50.18 110.93 16.21 68.71 7.73 143.66-25.41 206.09-42.91 42.95-94.87 75.81-150.18 100.38-11.99-8.66-23.54-18.02-35.9-26.13-17.15 7.52-32.59 19.04-49.7 26.87-19.48-17.48-36.71-37.69-56.27-54.92-20.43 10.87-37.57 28.34-57.73 39.73-11.71-8.3-23.54-17.39-34-27 10.7-14.3 25.85-26.41 37.15-40.86-8.23-8.2-16.55-17.82-26.06-23.82-22.23 22.3-43.65 45.7-65.33 68.66 27.88 21.54 55.31 43.67 82.89 65.58 1.8 1.24 4.14 3.68 6.47 2 17.57-12.43 34.57-25.9 52.65-37.49 9.12 8.18 17.88 16.88 26.04 26.05-8.02 0.25-16.21-0.89-24.12 0.62-13.79 3.52-12.92 25.32-29.46 24.12-32.37-0.64-63.02-14.26-95.33-15.64-17.27-2.24-27.63 18.42-45.33 13.66-24.43-5.31-40.35-27.53-63.14-36.49-19.68-6.01-39.55 2.59-58.7 6.54-17.03-10.96-33.98-22.11-49.72-34.88-6.93-8.47-14.91-16.52-25.17-20.81-48.25-40.39-88.79-89.89-118.9-145.16 10.69 49.25 34.33 95.22 65.18 134.85-20.05-13.55-37.94-29.95-55.27-46.75-13.28-25.77-23.04-53.83-27.19-82.57-0.38-0.49-1.15-1.47-1.53-1.96-4.1-34.68-5.49-69.49-0.02-104.09 0.35-0.53 1.05-1.58 1.4-2.1 3.04-24.11 11.23-47.33 21.01-69.5 4.06 7.11 8.63 13.99 14.41 19.84-9.51 17.81 1.91 38.09 16.37 49.09 1.68 25.21 24.06 41.87 46.19 49.68 52.19 16.9 109.73 16.77 162.97 5.08-45.71-2.67-92.05-2.98-136.68-14.36-17.67-5.43-36.22-13.32-47.01-29.07 51.99 23.41 111.83 25.51 167.45 17.78-49.71-3.91-101.12-8.09-147.1-29.08-13.63-6.77-27.6-15.14-35.18-28.84 47.15 31.66 105.89 38.36 161.32 36.73-37.18-7.33-74.78-14.93-109.6-30.42-16.65-8.66-34.94-17.61-44.03-34.96 54.22 19.62 111.98 24.84 168.64 33.33 43.04 7.1 84.13 29.73 107.73 67.29-6.53-34.82-36.14-59.52-67.44-72.57-41.49-17.1-86.07-25.08-130.05-32.86-38.66-8.3-78.62-15.35-113.61-34.86 5.26-10.2 11.35-20.14 18.36-29.22m555.3 19.29c-48.74 13.49-85.59 54.69-102.95 101.05-32.51 83.88-7.66 194.37 73.29 241.27 46.83 27.26 109.77 19.02 149.18-17.81 78.8-62 87.61-187.87 31.4-267.77-15.47-21.58-37.22-39.28-62.8-47.18-26.27-15.36-59.06-16.25-88.12-9.56m-175.98 95.77c-29.97 7.94-34.99 48.55-25.61 73.53 5.2 14.66 21.14 30.45 37.72 22.95 25.21-12.87 28.83-47.53 20.09-71.84-4.67-13.19-16.83-27.43-32.2-24.64z" fill="#9c3"/>
   <path d="m743.09 166.97c19.92-11.12 43.65-5.06 64.69-0.83 32.77 9.08 65.73 22.45 90.3 46.75 4.67 6.69 9.87 15.57 5.07 23.61-10.21 11.78-27.95 7.97-41.57 8.31-38.41-4.6-75.69-19.55-106.69-42.67-9.6-7.78-22.73-23.27-11.8-35.17z" fill="#fff"/>
   <path d="m853.67 310.67c29.06-6.69 61.85-5.8 88.12 9.56-32.79-10.14-69.71-1.28-95.43 21.13-50 41.72-65.3 112.51-58.39 174.67 7.62 47.76 29.66 96.56 71.93 123.07 34.08 21.99 80.54 19.43 113.29-3.92-39.41 36.83-102.35 45.07-149.18 17.81-80.95-46.9-105.8-157.39-73.29-241.27 17.36-46.36 54.21-87.56 102.95-101.05z" fill="#690"/>
   <path d="m846.36 341.36c25.72-22.41 62.64-31.27 95.43-21.13 25.58 7.9 47.33 25.6 62.8 47.18 56.21 79.9 47.4 205.77-31.4 267.77-32.75 23.35-79.21 25.91-113.29 3.92-42.27-26.51-64.31-75.31-71.93-123.07-6.91-62.16 8.39-132.95 58.39-174.67m34.73 16.73c-32.42 18.55-51.6 54.73-57.28 90.74-10.02 44.67-1.75 94.88 24.26 133.1 12.59 18.83 32.08 34.24 54.67 38.58 35.94 5.75 68.39-20.65 83.53-51.19 17.02-30.2 23.42-66.23 20.21-100.71-4.88-40.62-19.73-84.02-55.62-107.48-20.02-14.52-48.52-15.43-69.77-3.04z"/>
   <path d="m881.09 358.09c21.25-12.39 49.75-11.48 69.77 3.04 35.89 23.46 50.74 66.86 55.62 107.48 3.21 34.48-3.19 70.51-20.21 100.71-31.8 25.01-80 24.08-109.85-3.74-33.69-28.77-49.99-73.45-52.61-116.75 5.68-36.01 24.86-72.19 57.28-90.74m44.44 87.45c-17.36 26.97-16.63 63.68 0.18 90.75 6.66 10.34 19.45 17.61 31.84 13.42 17.7-8.02 26.58-28.02 27.69-46.42-11.77-2.42-23.57-4.43-35.19-7.51 9.95-12.33 21.09-23.67 30.93-36.07-3.36-12.95-13.41-24.61-26.41-28.59-12.02-2.72-22.27 5.54-29.04 14.42z" fill="#fff"/>
   <path d="m677.69 406.44c15.37-2.79 27.53 11.45 32.2 24.64 8.74 24.31 5.12 58.97-20.09 71.84-16.58 7.5-32.52-8.29-37.72-22.95-9.38-24.98-4.36-65.59 25.61-73.53z" fill="#690"/>
   <path d="m925.53 445.54c6.77-8.88 17.02-17.14 29.04-14.42 13 3.98 23.05 15.64 26.41 28.59-9.84 12.4-20.98 23.74-30.93 36.07 11.62 3.08 23.42 5.09 35.19 7.51-1.11 18.4-9.99 38.4-27.69 46.42-12.39 4.19-25.18-3.08-31.84-13.42-16.81-27.07-17.54-63.78-0.18-90.75z"/>
   <path d="m848.07 581.93c-26.01-38.22-34.28-88.43-24.26-133.1 2.62 43.3 18.92 87.98 52.61 116.75 29.85 27.82 78.05 28.75 109.85 3.74-15.14 30.54-47.59 56.94-83.53 51.19-22.59-4.34-42.08-19.75-54.67-38.58z" fill="#d0d2d3"/>
   <path d="m262.05 520.92c30.11 55.27 70.65 104.77 118.9 145.16 8.14 7.21 16.08 14.77 25.17 20.81 15.74 12.77 32.69 23.92 49.72 34.88 54.43 34.5 113.32 62.43 175.14 80.83-114.28-8.68-231-55.11-303.75-146.83-30.85-39.63-54.49-85.6-65.18-134.85z" fill="#fff"/>
   <path d="m271.96 609.02c17.33 16.8 35.22 33.2 55.27 46.75 72.75 91.72 189.47 138.15 303.75 146.83-61.82-18.4-120.71-46.33-175.14-80.83 19.15-3.95 39.02-12.55 58.7-6.54 22.79 8.96 38.71 31.18 63.14 36.49 17.7 4.76 28.06-15.9 45.33-13.66 32.31 1.38 62.96 15 95.33 15.64 16.54 1.2 15.67-20.6 29.46-24.12 7.91-1.51 16.1-0.37 24.12-0.62l0.99 0.01c8.65 9.4 17.78 18.36 27.02 27.18 18.08-8.8 34.84-20.57 52.94-29.01 13.6 8.25 25.8 18.96 39.1 27.83 19.96-10.73 39.82-21.7 59.97-32.06-145.53 123.28-369.2 136.46-532.52 40.67-61.96-36.6-115.95-89.35-147.46-154.56z" fill="#690"/>
   <path d="m891.71 710.29c55.31-24.57 107.27-57.43 150.18-100.38-5.44 12.41-12.01 25-21.01 35.04-39.7 21.8-79.87 42.83-119.85 64.17-2.87 1.29-6.54 4.2-9.32 1.17z" fill="#690"/>
   <path d="m380.95 666.08c10.26 4.29 18.24 12.34 25.17 20.81-9.09-6.04-17.03-13.6-25.17-20.81z" fill="#79a81c"/>
  </g>
  <text transform="matrix(1 0 -.21256 1 -599.13 -132.02)" fill="#78c91f" font-family="sans-serif" font-size="36px" letter-spacing="0px" text-align="center" word-spacing="0px" style="line-height:1.25;shape-inside:url(#rect887);white-space:pre" xml:space="preserve"><tspan x="718.62891" y="173.82812"><tspan fill="#78c91f" font-family="sans-serif" font-size="36px" font-weight="bold">Code Roulette</tspan></tspan></text>
 </g>
</svg>
